<svg width="56" height="56" viewBox="0 0 56 56" fill="none" xmlns="http://www.w3.org/2000/svg">
<path fill-rule="evenodd" clip-rule="evenodd" d="M40.0829 29.0475C40.3498 29.2314 40.4738 29.5628 40.3927 29.8767C40.3102 30.1903 40.0419 30.4196 39.7187 30.4514L27.8817 31.5834L20.9829 41.2685C20.7938 41.5325 20.461 41.6501 20.1482 41.5648C19.8358 41.4781 19.6108 41.205 19.585 40.8819L17.5064 15.0067C17.4826 14.7097 17.6306 14.4256 17.8895 14.2762C18.1483 14.1268 18.4683 14.1406 18.7136 14.3097L40.0829 29.0475Z" fill="#0054FA"/>
<path fill-rule="evenodd" clip-rule="evenodd" d="M27.8817 31.5834L39.7187 30.4514C40.0419 30.4196 40.3102 30.1903 40.3927 29.8767C40.4738 29.5628 40.3498 29.2314 40.0829 29.0475L18.7136 14.3097C18.4683 14.1406 18.1483 14.1268 17.8895 14.2762C17.6306 14.4256 17.4826 14.7097 17.5064 15.0067L19.585 40.8819C19.6108 41.205 19.8358 41.4781 20.1482 41.5648C20.461 41.6501 20.7938 41.5325 20.9829 41.2685L27.8817 31.5834ZM21.5068 36.6465L20.004 17.9388L35.454 28.5941L26.6424 29.4368L21.5068 36.6465Z" fill="white"/>
</svg>
